<svg width="2249" height="587" viewBox="0 0 2249 587" fill="none" xmlns="http://www.w3.org/2000/svg">
<path d="M430.893 289.504H349.615L322.722 231.719H404L430.893 289.504Z" fill="black"/>
<path d="M322.722 347.29H404L430.893 289.504H349.615L322.722 347.29Z" fill="black"/>
<path d="M196.05 329.267H277.328L241.005 407.306H159.728L196.05 329.267Z" fill="black"/>
<path d="M322.722 231.719L295.83 289.504H214.552L241.445 231.719H322.722Z" fill="black"/>
<path d="M2017.93 406.322C2009.84 406.322 2001.75 405.552 1993.66 404.01C1985.57 402.468 1978.02 399.715 1971.02 395.751C1964.03 391.786 1958.12 386.501 1953.31 379.893C1948.5 373.066 1945.44 364.697 1944.13 354.786H1978.57C1980.32 360.072 1983.38 364.366 1987.75 367.67C1992.34 370.974 1997.37 373.396 2002.84 374.938C2008.52 376.48 2014.1 377.25 2019.57 377.25C2022.85 377.25 2026.45 377.03 2030.39 376.59C2034.54 376.149 2038.48 375.158 2042.2 373.616C2045.91 372.075 2048.97 369.872 2051.38 367.009C2053.79 363.926 2054.99 359.851 2054.99 354.786C2054.99 350.821 2053.89 347.518 2051.71 344.875C2049.74 342.232 2046.9 340.14 2043.18 338.598C2039.68 336.836 2035.42 335.515 2030.39 334.634C2020.55 332.431 2009.95 330.339 1998.58 328.357C1987.42 326.154 1977.58 322.41 1969.06 317.124C1966 315.142 1963.26 312.94 1960.86 310.517C1958.45 307.874 1956.38 304.901 1954.63 301.597C1952.88 298.294 1951.56 294.77 1950.69 291.026C1949.82 287.282 1949.38 283.207 1949.38 278.802C1949.38 269.772 1951.13 262.064 1954.63 255.677C1958.34 249.29 1963.37 244.114 1969.71 240.15C1976.05 235.965 1983.27 232.882 1991.36 230.9C1999.45 228.918 2007.98 227.926 2016.94 227.926C2028.53 227.926 2039.03 229.798 2048.43 233.543C2057.83 237.287 2065.59 242.793 2071.71 250.061C2077.84 257.329 2081.45 266.469 2082.54 277.481H2050.72C2049.41 271.534 2045.59 266.799 2039.24 263.275C2033.12 259.531 2025.36 257.659 2015.96 257.659C2012.68 257.659 2009.07 257.879 2005.13 258.32C2001.42 258.76 1997.81 259.751 1994.31 261.293C1990.81 262.835 1987.97 265.037 1985.78 267.9C1983.6 270.543 1982.5 274.067 1982.5 278.472C1982.5 282.657 1983.49 286.18 1985.46 289.044C1987.64 291.907 1990.7 294.219 1994.64 295.981C1998.79 297.743 2003.49 299.175 2008.74 300.276C2016.18 302.038 2024.16 303.69 2032.69 305.231C2041.43 306.773 2048.54 308.425 2054 310.187C2061.22 312.169 2067.34 315.032 2072.37 318.776C2077.62 322.52 2081.55 327.256 2084.18 332.982C2087.02 338.708 2088.44 345.646 2088.44 353.795C2088.44 364.366 2086.36 373.066 2082.21 379.893C2078.06 386.501 2072.48 391.786 2065.48 395.751C2058.71 399.715 2051.05 402.468 2042.52 404.01C2034.22 405.552 2026.02 406.322 2017.93 406.322Z" fill="black"/>
<path d="M1849.27 406.322C1831.12 406.322 1815.93 402.578 1803.68 395.09C1791.44 387.602 1782.15 377.25 1775.8 364.036C1769.68 350.601 1766.62 335.184 1766.62 317.785C1766.62 300.166 1769.79 284.639 1776.13 271.204C1782.69 257.769 1792.09 247.198 1804.34 239.489C1816.8 231.781 1831.78 227.926 1849.27 227.926C1862.61 227.926 1874.2 230.459 1884.04 235.525C1893.88 240.37 1901.97 246.977 1908.31 255.347C1914.87 263.716 1919.68 273.076 1922.74 283.427C1925.8 293.559 1927.11 304.13 1926.68 315.142C1926.68 317.565 1926.57 319.877 1926.35 322.08C1926.13 324.282 1925.91 326.595 1925.69 329.017H1800.73C1801.39 337.827 1803.57 345.866 1807.29 353.134C1811.23 360.402 1816.69 366.238 1823.69 370.643C1830.69 374.828 1839.32 376.92 1849.6 376.92C1855.29 376.92 1860.75 376.259 1866 374.938C1871.47 373.396 1876.28 371.084 1880.43 368C1884.8 364.697 1887.86 360.512 1889.61 355.447H1923.72C1920.88 367.119 1915.74 376.81 1908.31 384.518C1901.09 392.007 1892.24 397.513 1881.74 401.037C1871.47 404.56 1860.64 406.322 1849.27 406.322ZM1801.39 301.928H1893.22C1893 293.338 1891.04 285.74 1887.32 279.133C1883.6 272.305 1878.46 267.019 1871.9 263.275C1865.34 259.311 1857.47 257.329 1848.29 257.329C1838.23 257.329 1829.81 259.421 1823.03 263.606C1816.47 267.79 1811.34 273.296 1807.62 280.124C1804.12 286.731 1802.04 293.999 1801.39 301.928Z" fill="black"/>
<path d="M1659.99 404.34V230.239H1691.8L1693.44 255.347C1697.82 248.519 1702.85 243.123 1708.53 239.159C1714.22 235.194 1720.45 232.331 1727.23 230.569C1734 228.807 1741.11 227.926 1748.54 227.926C1750.51 227.926 1752.37 227.926 1754.12 227.926C1755.87 227.926 1757.51 227.926 1759.04 227.926V260.632H1748.54C1736.08 260.632 1725.69 263.165 1717.39 268.231C1709.3 273.296 1703.28 280.344 1699.35 289.374C1695.63 298.404 1693.77 308.755 1693.77 320.428V404.34H1659.99Z" fill="black"/>
<path d="M1552.38 406.323C1528.11 406.323 1509.52 399.936 1496.62 387.162C1483.94 374.168 1477.6 354.456 1477.6 328.027V230.24H1511.38V326.045C1511.38 336.396 1512.8 345.316 1515.64 352.804C1518.71 360.293 1523.3 366.019 1529.42 369.983C1535.54 373.948 1543.3 375.93 1552.71 375.93C1562.55 375.93 1570.42 373.948 1576.32 369.983C1582.44 365.799 1586.82 359.962 1589.44 352.474C1592.28 344.986 1593.7 336.176 1593.7 326.045V230.24H1627.49V328.027C1627.49 354.897 1620.93 374.718 1607.81 387.492C1594.91 400.046 1576.43 406.323 1552.38 406.323Z" fill="black"/>
<path d="M1420.44 406.323C1401.85 406.323 1388.52 401.257 1380.43 391.126C1372.56 380.775 1368.62 366.349 1368.62 347.848V260.633H1341.07V230.239H1368.62V179.694H1402.4V230.239H1455.21V260.633H1402.4V342.232C1402.4 348.399 1402.95 354.015 1404.04 359.081C1405.35 364.146 1407.76 368.111 1411.26 370.974C1414.76 373.837 1419.78 375.379 1426.34 375.599C1431.37 375.599 1435.75 374.718 1439.46 372.956C1443.4 371.194 1446.57 369.212 1448.97 367.01L1462.09 392.447C1457.94 395.751 1453.57 398.504 1448.97 400.707C1444.6 402.689 1440.01 404.12 1435.2 405.001C1430.39 405.882 1425.47 406.323 1420.44 406.323Z" fill="black"/>
<path d="M1166.35 404.34V230.239H1198.49L1200.13 254.686C1204.51 248.299 1209.76 243.233 1215.88 239.489C1222 235.525 1228.56 232.662 1235.56 230.9C1242.55 228.918 1249.33 227.926 1255.89 227.926C1272.51 227.926 1285.52 231.56 1294.92 238.828C1304.54 245.876 1311.32 255.457 1315.26 267.57C1319.41 279.463 1321.49 293.008 1321.49 308.205V404.34H1287.38V315.142C1287.38 308.095 1286.94 301.157 1286.07 294.329C1285.19 287.502 1283.33 281.445 1280.49 276.159C1277.87 270.653 1274.04 266.359 1269.01 263.275C1263.98 259.972 1257.2 258.32 1248.68 258.32C1238.18 258.32 1229.33 261.183 1222.11 266.909C1214.89 272.636 1209.43 280.344 1205.71 290.035C1201.99 299.725 1200.13 310.627 1200.13 322.741V404.34H1166.35Z" fill="black"/>
<path d="M1062.31 406.322C1044.16 406.322 1028.97 402.578 1016.72 395.09C1004.48 387.602 995.185 377.25 988.844 364.036C982.721 350.601 979.66 335.184 979.66 317.785C979.66 300.166 982.831 284.639 989.172 271.204C995.731 257.769 1005.13 247.198 1017.38 239.489C1029.84 231.781 1044.82 227.926 1062.31 227.926C1075.65 227.926 1087.24 230.459 1097.08 235.525C1106.92 240.37 1115.01 246.977 1121.35 255.347C1127.91 263.716 1132.72 273.076 1135.78 283.427C1138.84 293.559 1140.15 304.13 1139.71 315.142C1139.71 317.565 1139.61 319.877 1139.39 322.08C1139.17 324.282 1138.95 326.595 1138.73 329.017H1013.77C1014.43 337.827 1016.61 345.866 1020.33 353.134C1024.27 360.402 1029.73 366.238 1036.73 370.643C1043.73 374.828 1052.36 376.92 1062.64 376.92C1068.32 376.92 1073.79 376.259 1079.04 374.938C1084.5 373.396 1089.32 371.084 1093.47 368C1097.84 364.697 1100.9 360.512 1102.65 355.447H1136.76C1133.92 367.119 1128.78 376.81 1121.35 384.518C1114.13 392.007 1105.28 397.513 1094.78 401.037C1084.5 404.56 1073.68 406.322 1062.31 406.322ZM1014.43 301.928H1106.26C1106.04 293.338 1104.07 285.74 1100.36 279.133C1096.64 272.305 1091.5 267.019 1084.94 263.275C1078.38 259.311 1070.51 257.329 1061.33 257.329C1051.27 257.329 1042.85 259.421 1036.07 263.606C1029.51 267.79 1024.37 273.296 1020.66 280.124C1017.16 286.731 1015.08 293.999 1014.43 301.928Z" fill="black"/>
<path d="M861.925 404.341L794.646 228.468H832.364L884.884 373.617L936.404 228.468H974.45L907.843 404.341H861.925Z" fill="black"/>
<path fill-rule="evenodd" clip-rule="evenodd" d="M563.247 404.054V228.468H597.951V404.054H563.247ZM622.656 404.054V228.468H683.233C695.134 228.468 705.716 230.494 714.799 234.784C724.221 239.166 731.54 246.07 736.598 255.38C741.702 264.62 744.023 276.176 744.023 289.624C744.023 302.819 741.267 314.361 735.381 323.892C729.766 333.216 722.041 340.305 712.343 345.102L712.268 345.14C702.663 349.721 691.874 351.934 680.023 351.934H657.36V404.054H622.656ZM702.84 269.72C698.964 265.871 692.53 263.376 682.377 263.376H657.36V317.257H679.167C689.045 317.257 696.303 314.819 701.524 310.553C706.176 306.611 709.105 299.918 709.105 288.933C709.105 279.392 706.686 273.429 702.904 269.782L702.872 269.751L702.84 269.72Z" fill="black"/>
</svg>
